<svg width="106" height="122" viewBox="0 0 106 122" fill="none" xmlns="http://www.w3.org/2000/svg">
<path d="M106 85.4V6.1C106 2.2875 103.729 0 99.9429 0H22.7143C9.84286 0 0 9.9125 0 22.875V99.125C0 112.088 9.84286 122 22.7143 122H99.9429C102.971 122 106 119.713 106 115.9V112.088C106 110.562 105.243 109.038 103.729 107.513C102.971 103.7 102.971 93.025 103.729 89.975C105.243 89.2125 106 87.6875 106 85.4ZM34.0714 40.0312C34.0714 39.5257 34.2709 39.0408 34.6258 38.6833C34.9808 38.3258 35.4623 38.125 35.9643 38.125H49.2143V24.7812C49.2143 24.2757 49.4137 23.7908 49.7687 23.4333C50.1237 23.0758 50.6051 22.875 51.1071 22.875H62.4643C62.9663 22.875 63.4478 23.0758 63.8027 23.4333C64.1577 23.7908 64.3571 24.2757 64.3571 24.7812V38.125H77.6071C78.1092 38.125 78.5906 38.3258 78.9456 38.6833C79.3006 39.0408 79.5 39.5257 79.5 40.0312V51.4688C79.5 51.9743 79.3006 52.4592 78.9456 52.8167C78.5906 53.1742 78.1092 53.375 77.6071 53.375H64.3571V66.7188C64.3571 67.2243 64.1577 67.7092 63.8027 68.0667C63.4478 68.4242 62.9663 68.625 62.4643 68.625H51.1071C50.6051 68.625 50.1237 68.4242 49.7687 68.0667C49.4137 67.7092 49.2143 67.2243 49.2143 66.7188V53.375H35.9643C35.4623 53.375 34.9808 53.1742 34.6258 52.8167C34.2709 52.4592 34.0714 51.9743 34.0714 51.4688V40.0312ZM90.1 106.75H22.7143C18.1714 106.75 15.1429 103.7 15.1429 99.125C15.1429 94.55 18.9286 91.5 22.7143 91.5H90.1V106.75Z" fill="#81AFD4"/>
</svg>
