<svg width="109" height="125" viewBox="0 0 109 125" fill="none" xmlns="http://www.w3.org/2000/svg">
<path d="M70.0714 33.2031V0H21.4107C18.1748 0 15.5714 2.6123 15.5714 5.85938V62.5H1.94643C0.875893 62.5 0 63.3789 0 64.4531V68.3594C0 69.4336 0.875893 70.3125 1.94643 70.3125H36.2279C36.9578 70.3125 37.6391 70.7275 37.9797 71.3867L42.8214 81.1035L56.6411 53.3447C57.3467 51.9043 59.4147 51.9043 60.1203 53.3447L68.5629 70.3125H85.6429C87.7839 70.3125 89.5357 72.0703 89.5357 74.2188C89.5357 76.3672 87.7839 78.125 85.6429 78.125H63.7699L58.3929 67.334L44.5732 95.0928C43.8676 96.5332 41.7996 96.5332 41.094 95.0928L32.627 78.125H15.5714V119.141C15.5714 122.388 18.1748 125 21.4107 125H103.161C106.397 125 109 122.388 109 119.141V39.0625H75.9107C72.6991 39.0625 70.0714 36.4258 70.0714 33.2031ZM107.297 25.6348L83.4775 1.70898C82.3826 0.610352 80.8984 0 79.3413 0H77.8571V31.25H109V29.7607C109 28.2227 108.392 26.7334 107.297 25.6348Z" fill="#81AFD4"/>
</svg>
