<svg width="157" height="122" viewBox="0 0 157 122" fill="none" xmlns="http://www.w3.org/2000/svg">
<path d="M0 19.0625V102.938C0 109.252 5.86024 114.375 13.0833 114.375H26.1667V7.625H13.0833C5.86024 7.625 0 12.748 0 19.0625ZM34.8889 114.375H122.111V7.625H34.8889V114.375ZM52.3333 55.2812C52.3333 54.2328 53.3146 53.375 54.5139 53.375H69.7778V40.0312C69.7778 38.9828 70.759 38.125 71.9583 38.125H85.0417C86.241 38.125 87.2222 38.9828 87.2222 40.0312V53.375H102.486C103.685 53.375 104.667 54.2328 104.667 55.2812V66.7188C104.667 67.7672 103.685 68.625 102.486 68.625H87.2222V81.9688C87.2222 83.0172 86.241 83.875 85.0417 83.875H71.9583C70.759 83.875 69.7778 83.0172 69.7778 81.9688V68.625H54.5139C53.3146 68.625 52.3333 67.7672 52.3333 66.7188V55.2812ZM143.917 7.625H130.833V114.375H143.917C151.14 114.375 157 109.252 157 102.938V19.0625C157 12.748 151.14 7.625 143.917 7.625Z" fill="#81AFD4"/>
</svg>
